<mxfile host="app.diagrams.net" agent="Mozilla/5.0 (Macintosh; Intel Mac OS X 10_15_7) AppleWebKit/537.36 (KHTML, like Gecko) Chrome/141.0.0.0 Safari/537.36" version="28.2.7">
  <diagram name="Page-1" id="L4iD5z9h5l6EBAssaAdx">
    <mxGraphModel dx="1018" dy="570" grid="1" gridSize="10" guides="1" tooltips="1" connect="1" arrows="1" fold="1" page="1" pageScale="1" pageWidth="850" pageHeight="1100" math="0" shadow="0">
      <root>
        <mxCell id="0" />
        <mxCell id="xqf58XcjV-MWTwxDIHV3-1" value="Background" parent="0" />
        <mxCell id="xqf58XcjV-MWTwxDIHV3-2" value="Untitled Layer" parent="0" />
        <mxCell id="xqf58XcjV-MWTwxDIHV3-3" value="Untitled Layer" parent="0" />
        <mxCell id="xqf58XcjV-MWTwxDIHV3-4" value="Untitled Layer" parent="0" />
        <mxCell id="xqf58XcjV-MWTwxDIHV3-5" value="-" parent="0" />
        <object label="-" id="1">
          <mxCell parent="0" />
        </object>
      </root>
    </mxGraphModel>
  </diagram>
</mxfile>
